<?xml version="1.0" encoding="iso-8859-1"?>
<!-- Generator: Adobe Illustrator 19.0.0, SVG Export Plug-In . SVG Version: 6.00 Build 0)  -->
<svg version="1.1" id="Layer_1" xmlns="http://www.w3.org/2000/svg" xmlns:xlink="http://www.w3.org/1999/xlink" x="0px" y="0px"
	 viewBox="0 0 496.406 496.406" style="enable-background:new 0 0 496.406 496.406;" xml:space="preserve">
<g>
	<g>
		<path d="M386.2,312.203L183,109.003c-6.4-6.4-16-6.4-22.4,0l-35.2,35.2c-6.4,6.4-6.4,16,0,22.4l203.2,203.2
			c3.2,3.2,6.4,4.8,11.2,4.8c4.8,0,9.6-1.6,11.2-4.8l35.2-35.2c3.2-3.2,4.8-6.4,4.8-11.2C391,318.603,389.4,315.403,386.2,312.203z
			 M341.4,337.803L159,155.403l12.8-12.8l182.4,182.4L341.4,337.803z"/>
	</g>
</g>
<g>
	<g>
		<path d="M391,232.203l-128-128c-19.2-19.2-49.6-19.2-68.8,0l-17.6,19.2c-6.4,6.4-6.4,16,0,22.4c6.4,6.4,16,6.4,22.4,0l17.6-17.6
			c6.4-6.4,17.6-6.4,24,0l128,126.4c6.4,6.4,6.4,17.6,0,24l-17.6,17.6c-6.4,6.4-6.4,16,0,22.4c3.2,3.2,6.4,4.8,11.2,4.8
			s9.6-1.6,11.2-3.2l17.6-17.6C410.2,283.403,410.2,251.403,391,232.203z"/>
	</g>
</g>
<g>
	<g>
		<path d="M352.6,349.003c-6.4-6.4-16-6.4-22.4,0l-102.4,102.4l-8-22.4c-1.6-4.8-4.8-8-9.6-9.6l-44.8-16l-16-44.8
			c-1.6-4.8-4.8-8-9.6-9.6l-44.8-16l-16-44.8c-1.6-4.8-4.8-8-9.6-9.6l-22.4-8l102.4-102.4c6.4-6.4,6.4-16,0-22.4
			c-6.4-6.4-16-6.4-22.4,0L5.4,267.403c-4.8,3.2-6.4,9.6-4.8,14.4c1.6,4.8,6.4,9.6,11.2,11.2l40,12.8l16,43.2c1.6,4.8,4.8,8,9.6,9.6
			l44.8,16l16,44.8c1.6,4.8,4.8,8,9.6,9.6l43.2,16l12.8,40c1.6,6.4,6.4,9.6,11.2,11.2c0,0,1.6,0,3.2,0c4.8,0,8-1.6,12.8-3.2
			l121.6-121.6C359,365.003,359,355.403,352.6,349.003z"/>
	</g>
</g>
<g>
	<g>
		<path d="M480.6,14.603c-19.2-19.2-51.2-19.2-70.4,0l-128,128c-6.4,6.4-6.4,16,0,22.4c6.4,6.4,16,6.4,22.4,0l128-128
			c6.4-6.4,17.6-6.4,25.6,1.6c6.4,6.4,6.4,17.6,0,24l-128,128c-6.4,6.4-6.4,16,0,22.4c3.2,3.2,6.4,4.8,11.2,4.8s8-1.6,12.8-4.8
			l128-128C501.4,65.803,501.4,35.403,480.6,14.603z"/>
	</g>
</g>
<g>
	<g>
		<path d="M248.6,245.003c-6.4-6.4-16-6.4-22.4,0l-105.6,105.6c-6.4,6.4-6.4,16,0,22.4c3.2,3.2,6.4,4.8,11.2,4.8
			c4.8,0,9.6-1.6,11.2-4.8l105.6-105.6C255,261.003,255,251.403,248.6,245.003z"/>
	</g>
</g>
<g>
	<g>
		<path d="M215,211.403c-6.4-6.4-16-6.4-22.4,0L71,333.003c-6.4,6.4-6.4,16,0,22.4c3.2,3.2,6.4,4.8,11.2,4.8c3.2,0,8-1.6,11.2-4.8
			l121.6-121.6C221.4,227.403,221.4,217.803,215,211.403z"/>
	</g>
</g>
<g>
	<g>
		<path d="M179.8,176.203c-6.4-6.4-16-6.4-22.4,0l-105.6,105.6c-6.4,6.4-6.4,16,0,22.4c3.2,3.2,6.4,4.8,11.2,4.8
			c3.2,0,8-1.6,11.2-4.8l105.6-105.6C186.2,192.203,186.2,182.603,179.8,176.203z"/>
	</g>
</g>
<g>
	<g>
		<path d="M283.8,280.203c-6.4-6.4-16-6.4-22.4,0l-121.6,121.6c-6.4,6.4-6.4,16,0,22.4c3.2,3.2,6.4,4.8,11.2,4.8s8-1.6,11.2-4.8
			l121.6-121.6C290.2,296.203,290.2,286.603,283.8,280.203z"/>
	</g>
</g>
<g>
	<g>
		<path d="M319,315.403c-6.4-6.4-16-6.4-22.4,0L191,421.003c-6.4,6.4-6.4,16,0,22.4c3.2,3.2,6.4,4.8,11.2,4.8c3.2,0,8-1.6,11.2-4.8
			l105.6-105.6C325.4,331.403,325.4,321.803,319,315.403z"/>
	</g>
</g>
<g>
</g>
<g>
</g>
<g>
</g>
<g>
</g>
<g>
</g>
<g>
</g>
<g>
</g>
<g>
</g>
<g>
</g>
<g>
</g>
<g>
</g>
<g>
</g>
<g>
</g>
<g>
</g>
<g>
</g>
</svg>
